<?xml version="1.0" encoding="utf-8"?>
<svg viewBox="0 0 500 500" xmlns="http://www.w3.org/2000/svg" xmlns:bx="https://boxy-svg.com">
  <g fill="red" transform="matrix(1, 0, 0, 1, -171.423859, -47.297455)">
    <path d="M 666.3 296.5 C 666.3 264 625.6 233.2 563.2 214.1 C 577.6 150.5 571.2 99.9 543 83.7 C 536.5 79.9 528.9 78.1 520.6 78.1 L 520.6 100.4 C 525.2 100.4 528.9 101.3 532 103 C 545.6 110.8 551.5 140.5 546.9 178.7 C 545.8 188.1 544 198 541.8 208.1 C 522.2 203.3 500.8 199.6 478.3 197.2 C 464.8 178.7 455.885 150.883 441.785 136.183 C 474.385 105.883 499.9 100.3 520.7 100.3 L 520.7 78 C 493.2 78 461.437 70.481 425.037 104.481 C 388.637 70.681 348.4 78.4 320.9 78.4 L 320.9 100.7 C 341.6 100.7 369.758 107.878 402.358 137.978 C 388.358 152.678 376.9 178.7 363.6 197.2 C 341 199.6 319.6 203.3 300 208.2 C 297.7 198.2 296 188.5 294.8 179.2 C 290.1 141 295.9 111.3 309.4 103.4 C 312.4 101.6 316.3 100.8 320.9 100.8 L 320.9 78.5 C 312.5 78.5 304.9 80.3 298.3 84.1 C 270.2 100.3 263.9 150.8 278.4 214.2 C 216.2 233.4 175.7 264.1 175.7 296.5 C 175.7 329 216.4 359.8 278.8 378.9 C 264.4 442.5 270.8 493.1 299 509.3 C 305.5 513.1 313.1 514.9 321.5 514.9 C 349 514.9 385 495.3 421.4 461.3 C 457.8 495.1 493.8 514.5 521.3 514.5 C 529.7 514.5 537.3 512.7 543.9 508.9 C 572 492.7 578.3 442.2 563.8 378.8 C 625.8 359.7 666.3 328.9 666.3 296.5 Z M 536.1 229.8 C 532.4 242.7 527.8 256 522.6 269.3 C 518.5 261.3 514.2 253.3 509.5 245.3 C 504.9 237.3 500 229.5 495.1 221.9 C 509.3 224 523 226.6 536.1 229.8 Z M 511 296.4 C 504.7 309.8 474.5 362.6 466.2 374.5 C 451.3 375.8 436.2 376.5 421 376.5 C 405.9 376.5 390.8 375.8 376 374.6 C 367.7 362.7 337.3 310.2 331 296.8 C 337.2 283.4 367.5 230.6 375.8 218.7 C 390.7 217.4 451.2 217.4 466 218.6 C 474.3 230.5 504.7 283 511 296.4 Z M 522.6 323.3 C 528 336.7 532.6 350.1 536.4 363.1 C 523.3 366.3 509.5 369 495.2 371.1 C 500.1 363.4 505 355.5 509.6 347.4 C 514.2 339.4 518.5 331.3 522.6 323.3 Z M 421.2 430 C 411.9 420.4 402.6 409.7 393.4 398 C 402.4 398.4 411.6 398.7 420.9 398.7 C 430.3 398.7 439.6 398.5 448.7 398 C 439.7 409.7 430.4 420.4 421.2 430 Z M 346.8 371.1 C 332.6 369 318.9 366.4 305.8 363.2 C 309.5 350.3 314.1 337 319.3 323.7 C 323.4 331.7 327.7 339.7 332.4 347.7 C 337.1 355.7 341.9 363.5 346.8 371.1 Z M 423.242 119.78 C 432.542 129.38 439.3 183.3 448.5 195 C 439.5 194.6 430.3 194.3 421 194.3 C 411.6 194.3 402.3 194.5 393.2 195 C 402.2 183.3 414.042 129.38 423.242 119.78 Z M 346.7 221.9 C 341.8 229.6 336.9 237.5 332.3 245.6 C 327.7 253.6 323.4 261.6 319.3 269.6 C 313.9 256.2 309.3 242.8 305.5 229.8 C 318.6 226.7 332.4 224 346.7 221.9 Z M 201.115 311.507 C 170.789 287.811 291.12 350.336 291.12 296.5 C 291.12 242.664 168.258 290.561 203.658 275.561 C 212.258 271.861 274.2 238.9 283.9 235.8 C 289.6 255.4 297.1 275.8 306.4 296.7 C 297.2 317.5 289.8 337.8 284.2 357.3 C 274.3 354.2 212.357 320.292 201.115 311.507 Z M 405.3 445.8 C 370.575 502.311 286.03 507.63 295.1 414.3 C 296.015 404.88 298 395 300.2 384.9 C 319.8 389.7 341.2 393.4 363.7 395.8 C 377.2 414.3 391.2 431.1 405.3 445.8 Z M 542 384.7 C 583.657 468.266 497.732 528.027 437.1 445.6 C 451.1 430.9 465.1 414.2 478.4 395.7 C 501 393.3 522.4 389.6 542 384.7 Z M 629.767 325.914 C 621.167 329.614 567.7 354.1 558 357.2 C 552.3 337.6 544.8 317.2 535.5 296.3 C 544.7 275.5 552.1 255.2 557.7 235.7 C 567.6 238.8 619.377 259.139 628.173 262.849 C 663.536 277.765 550.938 259.908 550.032 297.347 C 549.126 334.786 665.167 310.914 629.767 325.914 Z M 320.8 78.4 Z"/>
    <path d="M520.5 78.1z"/>
  </g>
  <path d="M 249.577 195.763 L 290.678 277.966 L 208.475 277.966 L 249.577 195.763 Z" style="stroke: rgb(0, 0, 0); fill: rgb(25, 1, 5); stroke-opacity: 0;" bx:shape="triangle 208.475 195.763 82.203 82.203 0.5 0 1@68aa4b88"/>
</svg>